<svg width="32" height="32" viewBox="0 0 32 32" fill="none" xmlns="http://www.w3.org/2000/svg" class="size-11"><path d="M16 32C24.8366 32 32 24.8366 32 16C32 7.16344 24.8366 0 16 0C7.16344 0 0 7.16344 0 16C0 24.8366 7.16344 32 16 32Z" fill="#DD1438"></path><path d="M25.0703 8.19668C24.6715 7.23493 24.0782 6.36599 23.3276 5.64437C22.5705 4.93655 21.6899 4.37376 20.7296 3.98399C20.0774 3.72435 19.3924 3.55656 18.6941 3.48542C17.3684 3.30134 16.0176 3.45833 14.7695 3.94155C13.5213 4.42476 12.417 5.21825 11.5608 6.24703C10.7046 7.27581 10.1249 8.50591 9.8764 9.82108C9.62791 11.1362 9.71886 12.4931 10.1407 13.7633V13.7862C9.55476 14.1502 9.01954 14.5901 8.54889 15.0943C7.82232 15.856 7.24928 16.7505 6.86107 17.729C6.4875 18.7088 6.29981 19.7496 6.30761 20.7982C6.30996 21.8394 6.52799 22.8688 6.94797 23.8216C7.34845 24.7825 7.94155 25.6511 8.69068 26.3739C9.45015 27.0809 10.3321 27.6436 11.2933 28.0343C12.168 28.3795 13.0975 28.5654 14.0377 28.5832H14.1795C15.4263 28.5927 16.6575 28.3068 17.7725 27.7489C18.8875 27.191 19.8545 26.3769 20.5943 25.3734C21.3342 24.3698 21.8258 23.2053 22.029 21.9752C22.2322 20.7451 22.1411 19.4843 21.7633 18.2962C22.3863 17.9185 22.9542 17.4567 23.4511 16.924C24.1839 16.1653 24.7632 15.2723 25.1572 14.2939C25.5341 13.3133 25.7234 12.2706 25.7153 11.2201C25.7113 10.1786 25.4918 9.14916 25.0703 8.19668ZM18.1727 8.76387C18.1152 8.51656 18.089 8.26299 18.0949 8.00915C18.3805 8.05678 18.6598 8.13657 18.9274 8.247C19.3038 8.4092 19.6385 8.65475 19.9062 8.96512C20.165 9.26945 20.3664 9.61813 20.5009 9.99428C20.6255 10.3655 20.6843 10.7555 20.6747 11.1469C20.6319 11.8775 20.3208 12.5666 19.801 13.0818L18.1727 8.76387ZM20.0343 13.6947C20.0846 13.6489 20.1349 13.5986 20.1807 13.5483C20.4948 13.216 20.739 12.8241 20.8988 12.3957C21.0521 11.9707 21.1235 11.5207 21.1092 11.0692C21.1034 10.6273 21.002 10.192 20.8119 9.79302C20.618 9.40898 20.3578 9.06214 20.0435 8.76844C19.7339 8.48576 19.3718 8.26663 18.9777 8.1235C18.6913 8.02663 18.3925 7.97118 18.0903 7.95883C18.1065 7.45954 18.2347 6.97026 18.4654 6.52716C18.8127 6.59213 19.1507 6.69967 19.4717 6.84734C20.0302 7.10535 20.5346 7.467 20.9583 7.91309C21.3529 8.37146 21.671 8.8904 21.9005 9.44997C22.1052 10.0079 22.2059 10.5985 22.1978 11.1927C22.2065 11.7852 22.0749 12.3714 21.8136 12.9034C21.5999 13.4393 21.2648 13.9184 20.8348 14.303C20.6918 14.4295 20.5388 14.5443 20.3774 14.6461L20.0343 13.6947ZM20.6152 15.227C20.8375 15.0633 21.047 14.8829 21.2419 14.6873C22.1354 13.7115 22.6257 12.4333 22.6141 11.1103C22.6038 10.4645 22.4605 9.82764 22.1933 9.23957C21.9363 8.6564 21.5609 8.13303 21.0909 7.70269C20.636 7.27603 20.1012 6.94339 19.5174 6.72384C19.1823 6.60706 18.8358 6.52581 18.4837 6.48142C18.6312 6.20491 18.8193 5.95205 19.0417 5.73128C19.2121 5.55699 19.4025 5.40345 19.6089 5.27387C19.765 5.32716 19.9178 5.38979 20.0663 5.46141C20.8083 5.77575 21.4754 6.24337 22.024 6.83362C22.5844 7.41231 23.0271 8.09425 23.3276 8.84162C23.6107 9.58974 23.7534 10.3837 23.7484 11.1835C23.7128 11.9695 23.541 12.7433 23.2407 13.4706C22.9182 14.1696 22.4684 14.8024 21.9142 15.3368C21.6272 15.6268 21.308 15.883 20.9628 16.1006L20.6152 15.227ZM12.295 26.6987C12.1671 26.6559 12.0419 26.6055 11.92 26.5477C11.178 26.2334 10.5108 25.7658 9.96227 25.1755C9.41437 24.5968 8.98269 23.9182 8.69068 23.1767C8.4076 22.4286 8.26495 21.6346 8.26987 20.8348C8.30501 20.0487 8.47681 19.2748 8.77759 18.5477C9.09998 17.8473 9.54978 17.213 10.1041 16.677C10.3708 16.4066 10.6634 16.163 10.9777 15.9497L11.3253 16.8645C11.1275 17.0137 10.9395 17.1757 10.7627 17.3493C10.3173 17.8315 9.96932 18.3953 9.73814 19.0097C9.49795 19.6212 9.37985 20.2739 9.39051 20.9308C9.40131 21.5766 9.54454 22.2134 9.81132 22.8016C10.337 23.9589 11.2988 24.8616 12.4871 25.3127C12.7841 25.4188 13.0904 25.4969 13.4019 25.546C13.2546 25.8068 13.0731 26.0468 12.8622 26.2596C12.6902 26.4267 12.4999 26.574 12.295 26.6987V26.6987ZM12.5283 25.1572C11.9698 24.8992 11.4654 24.5376 11.0417 24.0915C10.6482 23.634 10.3301 23.1168 10.0995 22.5592C9.89517 21.9996 9.79442 21.4075 9.80217 20.8119C9.79347 20.2193 9.92513 19.6331 10.1864 19.1012C10.4001 18.5653 10.7352 18.0862 11.1652 17.7015C11.281 17.595 11.4032 17.4958 11.5312 17.4042L11.8925 18.3831L11.8056 18.47C11.4915 18.8023 11.2473 19.1942 11.0875 19.6226C10.9342 20.0475 10.8628 20.4976 10.8771 20.9491C10.8829 21.391 10.9843 21.8263 11.1744 22.2253C11.3683 22.6093 11.6284 22.9562 11.9428 23.2499C12.2524 23.5325 12.6145 23.7517 13.0086 23.8948C13.27 23.9838 13.5424 24.0361 13.8182 24.0503C13.7975 24.5483 13.6629 25.035 13.4248 25.4728C13.1151 25.4015 12.8144 25.2956 12.5283 25.1572V25.1572ZM13.7679 23.227C13.8164 23.4771 13.8379 23.7316 13.8319 23.9863C13.5719 23.9352 13.3176 23.8586 13.0726 23.7576C12.6962 23.5954 12.3615 23.3498 12.0938 23.0395C11.835 22.7351 11.6336 22.3864 11.4991 22.0103C11.3745 21.6391 11.3157 21.249 11.3253 20.8576C11.3681 20.1563 11.6563 19.4924 12.1395 18.9823L13.7679 23.227ZM7.23614 23.6844C6.89882 22.7564 6.72697 21.7764 6.72842 20.789C6.77354 19.8085 6.99189 18.8438 7.37336 17.9394C7.7689 17.0432 8.33252 16.2312 9.03374 15.5472C9.44467 15.1384 9.90575 14.7834 10.4059 14.4906L10.6621 15.1675C10.2594 15.4272 9.88926 15.7344 9.55975 16.0823C8.97315 16.7235 8.52199 17.4765 8.23328 18.2962C7.94544 19.1033 7.80296 19.955 7.81247 20.8119C7.84769 21.6607 8.03677 22.4961 8.3705 23.2773C9.06353 24.8116 10.3268 26.0158 11.8925 26.6346C12.0023 26.6758 12.1166 26.7078 12.231 26.7444C11.7234 27.0423 11.1496 27.2089 10.5615 27.2293C10.3489 27.2303 10.137 27.2057 9.93025 27.1561C9.54798 26.8859 9.19261 26.5796 8.86907 26.2413C8.15895 25.521 7.6033 24.6634 7.23614 23.721V23.6844ZM24.6175 14.0057C24.222 14.9019 23.6583 15.7139 22.9571 16.3979C22.5245 16.8431 22.0336 17.2277 21.498 17.5415L21.2419 16.8645C21.6795 16.5991 22.0795 16.276 22.4311 15.9039C23.0251 15.2755 23.4857 14.5334 23.785 13.7221C24.0729 12.915 24.2153 12.0633 24.2058 11.2064C24.1706 10.3576 23.9815 9.52224 23.6478 8.741C22.9548 7.20666 21.6915 6.00247 20.1258 5.38365C19.984 5.32876 19.8331 5.28759 19.6684 5.24185C20.3914 4.81455 21.2501 4.67879 22.0698 4.86221C22.451 5.13372 22.8062 5.43997 23.1309 5.77702C23.8372 6.49676 24.3897 7.3527 24.7547 8.29274C25.0917 9.22083 25.2635 10.2007 25.2624 11.1881C25.2208 12.1696 25.0055 13.1359 24.6266 14.0423L24.6175 14.0057Z" fill="white"></path></svg>